<svg width="20" height="20" viewBox="0 0 20 20" fill="none" xmlns="http://www.w3.org/2000/svg">
<path d="M15.9542 6.56489L1.52672 18.2443L7.0229 11.5267H0.458015L6.25954 9.61832L0 7.32824L7.0229 7.93893L0 3.05344L7.63359 6.94656L3.35878 0.152672L8.54962 6.25954L7.0229 0L9.92366 6.25954L10.8397 1.98473L11.2214 6.94656L13.9695 3.96947L12.6718 7.78626L15.9542 6.56489Z" fill="white"/>
<path d="M15.9542 8.0916L17.3282 6.71756L17.7863 9.08397L15.9542 8.0916Z" fill="white"/>
<path d="M18.4733 11.9847L17.7863 9.61832L15.9542 8.77863L16.5649 11.2214L18.4733 11.9847Z" fill="white"/>
<path d="M19.2366 15.2672L18.626 12.6718L16.6412 11.9847L17.2519 14.7328L19.2366 15.2672Z" fill="white"/>
<path d="M18.0916 18.626L17.4809 15.5725L19.2366 15.8779L20 18.855L18.0916 18.626Z" fill="white"/>
<path d="M16.7176 15.4962L14.1221 14.9618L14.5038 18.4733L17.3282 18.626L16.7176 15.4962Z" fill="white"/>
<path d="M13.2061 14.8855L9.61832 14.1221L10 18.3206L13.6641 18.4733L13.2061 14.8855Z" fill="white"/>
<path d="M13.2061 10.229L15.1908 8.54962L15.7252 10.9924L13.2061 10.229Z" fill="white"/>
<path d="M13.8168 14.1221L13.2824 11.0687L15.9542 11.7557L16.4122 14.7328L13.8168 14.1221Z" fill="white"/>
<path d="M12.9771 13.9695L12.5191 10.9924L9.46565 13.2824L12.9771 13.9695Z" fill="white"/>
<path d="M8.85496 18.2443L8.39695 14.1221L1.14504 20L4.8855 18.0916L8.85496 18.2443Z" fill="white"/>
</svg>
